<?xml version="1.0" standalone="no"?>
<!DOCTYPE svg PUBLIC "-//W3C//DTD SVG 20010904//EN"
 "http://www.w3.org/TR/2001/REC-SVG-20010904/DTD/svg10.dtd">
<svg version="1.0" xmlns="http://www.w3.org/2000/svg"
 width="900.000000pt" height="900.000000pt" viewBox="0 0 900.000000 900.000000"
 preserveAspectRatio="xMidYMid meet">
<metadata>
Created by potrace 1.10, written by Peter Selinger 2001-2011
</metadata>
<g transform="translate(0.000000,900.000000) scale(0.100000,-0.100000)"
fill="#000000" stroke="none">
<path d="M1961 8896 c-13 -16 -11 -8819 2 -8833 14 -13 1113 -16 1138 -2 l21
11 -5 1106 c-4 933 -7 1129 -21 1247 -25 220 -25 226 -11 232 8 2 49 -22 92
-55 243 -185 489 -290 801 -343 291 -49 1224 -32 1677 31 122 17 394 64 500
86 69 14 139 29 280 58 157 33 233 49 280 61 28 7 95 23 150 36 55 12 106 27
113 32 9 8 12 650 10 3176 l-3 3166 -571 3 c-472 2 -573 0 -583 -11 -8 -10
-12 -741 -13 -2763 l-3 -2749 -25 -12 c-78 -37 -807 -105 -1148 -107 -259 -1
-517 38 -687 106 -476 189 -716 614 -800 1418 -28 266 -32 575 -34 2363 0 956
-3 1743 -7 1748 -3 5 -241 9 -573 9 -467 0 -571 -2 -580 -14z"/>
</g>
</svg>
